<mxfile host="app.diagrams.net" modified="2021-06-03T00:38:25.740Z" agent="5.0 (Macintosh; Intel Mac OS X 10_15_7) AppleWebKit/605.1.15 (KHTML, like Gecko) Version/14.1.1 Safari/605.1.15" etag="Yfj5NNuStQHBXYa31ZYh" version="14.7.4" type="github">
  <diagram id="UjNKp0Ct7n-lzt2zG22C" name="Page-1">
    <mxGraphModel dx="1928" dy="750" grid="1" gridSize="10" guides="1" tooltips="1" connect="1" arrows="1" fold="1" page="1" pageScale="1" pageWidth="827" pageHeight="1169" math="0" shadow="0">
      <root>
        <mxCell id="0" />
        <mxCell id="1" parent="0" />
        <mxCell id="G4XLr2i-ibFLbOx_ARMf-1" value="&lt;font face=&quot;Verdana&quot; color=&quot;#ff8000&quot;&gt;PresentableBreed&lt;/font&gt;" style="rounded=1;whiteSpace=wrap;html=1;fillColor=none;strokeColor=#FF8000;strokeWidth=3;" vertex="1" parent="1">
          <mxGeometry x="300" y="160" width="150" height="40" as="geometry" />
        </mxCell>
        <mxCell id="G4XLr2i-ibFLbOx_ARMf-2" value="&lt;font face=&quot;Verdana&quot; color=&quot;#00cc00&quot;&gt;Breed&lt;/font&gt;" style="rounded=1;whiteSpace=wrap;html=1;strokeColor=#00CC00;fillColor=none;strokeWidth=3;" vertex="1" parent="1">
          <mxGeometry x="520" y="160" width="150" height="40" as="geometry" />
        </mxCell>
        <mxCell id="G4XLr2i-ibFLbOx_ARMf-7" style="edgeStyle=orthogonalEdgeStyle;rounded=0;orthogonalLoop=1;jettySize=auto;html=1;strokeWidth=1;strokeColor=#00CC00;" edge="1" parent="1" source="G4XLr2i-ibFLbOx_ARMf-3" target="G4XLr2i-ibFLbOx_ARMf-2">
          <mxGeometry relative="1" as="geometry" />
        </mxCell>
        <mxCell id="G4XLr2i-ibFLbOx_ARMf-3" value="&lt;font face=&quot;Verdana&quot; color=&quot;#00cc00&quot;&gt;BreedsMapper&lt;/font&gt;" style="rounded=1;whiteSpace=wrap;html=1;strokeColor=#00CC00;fillColor=none;strokeWidth=3;" vertex="1" parent="1">
          <mxGeometry x="520" y="240" width="150" height="40" as="geometry" />
        </mxCell>
        <mxCell id="G4XLr2i-ibFLbOx_ARMf-4" value="" style="endArrow=none;html=1;strokeWidth=4;strokeColor=#FFCC99;" edge="1" parent="1">
          <mxGeometry width="50" height="50" relative="1" as="geometry">
            <mxPoint x="480" y="320" as="sourcePoint" />
            <mxPoint x="480" y="120" as="targetPoint" />
          </mxGeometry>
        </mxCell>
        <mxCell id="G4XLr2i-ibFLbOx_ARMf-5" value="" style="endArrow=none;html=1;strokeWidth=4;strokeColor=#FFCC99;" edge="1" parent="1">
          <mxGeometry width="50" height="50" relative="1" as="geometry">
            <mxPoint x="270" y="320" as="sourcePoint" />
            <mxPoint x="270" y="120" as="targetPoint" />
          </mxGeometry>
        </mxCell>
        <mxCell id="G4XLr2i-ibFLbOx_ARMf-8" value="&lt;font face=&quot;Verdana&quot; color=&quot;#007fff&quot;&gt;BreedsView&lt;/font&gt;" style="rounded=1;whiteSpace=wrap;html=1;fillColor=none;strokeWidth=3;strokeColor=#007FFF;" vertex="1" parent="1">
          <mxGeometry x="80" y="230" width="150" height="40" as="geometry" />
        </mxCell>
        <mxCell id="G4XLr2i-ibFLbOx_ARMf-11" style="edgeStyle=orthogonalEdgeStyle;rounded=0;orthogonalLoop=1;jettySize=auto;html=1;entryX=0;entryY=0.5;entryDx=0;entryDy=0;strokeWidth=1;strokeColor=#007FFF;" edge="1" parent="1" source="G4XLr2i-ibFLbOx_ARMf-9" target="G4XLr2i-ibFLbOx_ARMf-1">
          <mxGeometry relative="1" as="geometry" />
        </mxCell>
        <mxCell id="G4XLr2i-ibFLbOx_ARMf-14" style="edgeStyle=orthogonalEdgeStyle;rounded=0;orthogonalLoop=1;jettySize=auto;html=1;entryX=1;entryY=0.5;entryDx=0;entryDy=0;strokeColor=#007FFF;strokeWidth=1;" edge="1" parent="1" source="G4XLr2i-ibFLbOx_ARMf-9" target="G4XLr2i-ibFLbOx_ARMf-13">
          <mxGeometry relative="1" as="geometry" />
        </mxCell>
        <mxCell id="G4XLr2i-ibFLbOx_ARMf-9" value="&lt;font face=&quot;Verdana&quot; color=&quot;#007fff&quot;&gt;BreedCellView&lt;/font&gt;" style="rounded=1;whiteSpace=wrap;html=1;fillColor=none;strokeWidth=3;strokeColor=#007FFF;" vertex="1" parent="1">
          <mxGeometry x="80" y="160" width="150" height="40" as="geometry" />
        </mxCell>
        <mxCell id="G4XLr2i-ibFLbOx_ARMf-24" style="edgeStyle=orthogonalEdgeStyle;rounded=0;orthogonalLoop=1;jettySize=auto;html=1;strokeColor=#7F00FF;strokeWidth=1;" edge="1" parent="1" source="G4XLr2i-ibFLbOx_ARMf-10">
          <mxGeometry relative="1" as="geometry">
            <mxPoint x="590" y="320" as="targetPoint" />
          </mxGeometry>
        </mxCell>
        <mxCell id="G4XLr2i-ibFLbOx_ARMf-25" style="edgeStyle=orthogonalEdgeStyle;rounded=0;orthogonalLoop=1;jettySize=auto;html=1;strokeColor=#7F00FF;strokeWidth=1;" edge="1" parent="1" source="G4XLr2i-ibFLbOx_ARMf-10">
          <mxGeometry relative="1" as="geometry">
            <mxPoint x="375" y="320" as="targetPoint" />
          </mxGeometry>
        </mxCell>
        <mxCell id="G4XLr2i-ibFLbOx_ARMf-10" value="&lt;font face=&quot;Verdana&quot; color=&quot;#7f00ff&quot;&gt;BreedsStore&lt;/font&gt;" style="rounded=1;whiteSpace=wrap;html=1;fillColor=none;strokeWidth=3;strokeColor=#7F00FF;" vertex="1" parent="1">
          <mxGeometry x="300" y="390" width="150" height="40" as="geometry" />
        </mxCell>
        <mxCell id="G4XLr2i-ibFLbOx_ARMf-12" value="" style="endArrow=none;html=1;strokeWidth=4;dashed=1;strokeColor=#FFCC99;" edge="1" parent="1">
          <mxGeometry width="50" height="50" relative="1" as="geometry">
            <mxPoint x="40" y="320" as="sourcePoint" />
            <mxPoint x="40" y="120" as="targetPoint" />
          </mxGeometry>
        </mxCell>
        <mxCell id="G4XLr2i-ibFLbOx_ARMf-13" value="&lt;font color=&quot;#007fff&quot; face=&quot;Verdana&quot;&gt;&lt;span&gt;KingFisher&lt;/span&gt;&lt;/font&gt;" style="rounded=1;whiteSpace=wrap;html=1;fillColor=none;strokeWidth=3;dashed=1;strokeColor=#007FFF;" vertex="1" parent="1">
          <mxGeometry x="-150" y="160" width="150" height="40" as="geometry" />
        </mxCell>
        <mxCell id="G4XLr2i-ibFLbOx_ARMf-15" value="&lt;font color=&quot;#007fff&quot;&gt;&lt;b&gt;SwiftUI&lt;/b&gt;&lt;/font&gt;" style="text;html=1;strokeColor=none;fillColor=none;align=center;verticalAlign=middle;whiteSpace=wrap;rounded=0;dashed=1;" vertex="1" parent="1">
          <mxGeometry x="135" y="100" width="40" height="20" as="geometry" />
        </mxCell>
        <mxCell id="G4XLr2i-ibFLbOx_ARMf-16" value="&lt;b&gt;&lt;font color=&quot;#ff8000&quot;&gt;Presentation&lt;/font&gt;&lt;/b&gt;" style="text;html=1;strokeColor=none;fillColor=none;align=center;verticalAlign=middle;whiteSpace=wrap;rounded=0;dashed=1;" vertex="1" parent="1">
          <mxGeometry x="355" y="100" width="40" height="20" as="geometry" />
        </mxCell>
        <mxCell id="G4XLr2i-ibFLbOx_ARMf-17" value="&lt;font color=&quot;#00cc00&quot;&gt;&lt;b&gt;Cats Domain&lt;/b&gt;&lt;/font&gt;" style="text;html=1;strokeColor=none;fillColor=none;align=center;verticalAlign=middle;whiteSpace=wrap;rounded=0;dashed=1;" vertex="1" parent="1">
          <mxGeometry x="540" y="100" width="110" height="20" as="geometry" />
        </mxCell>
        <mxCell id="G4XLr2i-ibFLbOx_ARMf-18" value="" style="endArrow=none;html=1;strokeWidth=4;strokeColor=#FFCC99;" edge="1" parent="1">
          <mxGeometry width="50" height="50" relative="1" as="geometry">
            <mxPoint x="720" y="320" as="sourcePoint" />
            <mxPoint x="-160" y="320" as="targetPoint" />
          </mxGeometry>
        </mxCell>
        <mxCell id="G4XLr2i-ibFLbOx_ARMf-19" value="&lt;b&gt;&lt;font color=&quot;#7f00ff&quot;&gt;SwiftUI Application&lt;/font&gt;&lt;/b&gt;" style="text;html=1;strokeColor=none;fillColor=none;align=center;verticalAlign=middle;whiteSpace=wrap;rounded=0;dashed=1;" vertex="1" parent="1">
          <mxGeometry x="-160" y="340" width="150" height="20" as="geometry" />
        </mxCell>
        <mxCell id="G4XLr2i-ibFLbOx_ARMf-21" style="edgeStyle=orthogonalEdgeStyle;rounded=0;orthogonalLoop=1;jettySize=auto;html=1;entryX=0.5;entryY=1;entryDx=0;entryDy=0;strokeWidth=1;exitX=0.5;exitY=0;exitDx=0;exitDy=0;strokeColor=#7F00FF;" edge="1" parent="1" source="G4XLr2i-ibFLbOx_ARMf-20" target="G4XLr2i-ibFLbOx_ARMf-10">
          <mxGeometry relative="1" as="geometry" />
        </mxCell>
        <mxCell id="G4XLr2i-ibFLbOx_ARMf-22" style="edgeStyle=orthogonalEdgeStyle;rounded=0;orthogonalLoop=1;jettySize=auto;html=1;strokeColor=#7F00FF;strokeWidth=1;exitX=0;exitY=0.5;exitDx=0;exitDy=0;" edge="1" parent="1" source="G4XLr2i-ibFLbOx_ARMf-20">
          <mxGeometry relative="1" as="geometry">
            <mxPoint x="155" y="320" as="targetPoint" />
          </mxGeometry>
        </mxCell>
        <mxCell id="G4XLr2i-ibFLbOx_ARMf-20" value="&lt;font face=&quot;Verdana&quot; color=&quot;#7f00ff&quot;&gt;BreedsUIComposer&lt;/font&gt;" style="rounded=1;whiteSpace=wrap;html=1;fillColor=none;strokeWidth=3;strokeColor=#7F00FF;" vertex="1" parent="1">
          <mxGeometry x="300" y="470" width="150" height="40" as="geometry" />
        </mxCell>
        <mxCell id="G4XLr2i-ibFLbOx_ARMf-23" value="&lt;b&gt;&lt;font color=&quot;#007fff&quot;&gt;External Libs&lt;/font&gt;&lt;/b&gt;" style="text;html=1;strokeColor=none;fillColor=none;align=center;verticalAlign=middle;whiteSpace=wrap;rounded=0;dashed=1;" vertex="1" parent="1">
          <mxGeometry x="-92.5" y="100" width="35" height="20" as="geometry" />
        </mxCell>
      </root>
    </mxGraphModel>
  </diagram>
</mxfile>
